PathFileType	4	(x/y/z)	S09_P20_T03
DataRate	CameraRate	NumFrames	NumMarkers	Units	OrigDataRate	OrigDataStartFrame	OrigNumFrames
240	240	4	51	mm	240	256	409
Frame#	Time	Sternum			R.Acromium			L.Acromium			Top.Head			R.ASIS			L.ASIS			R.PSIS			L.PSIS			R.Great.Tro			L.Great.Tro			R.Iliac.Crest			L.Iliac.Crest			V.Sacral			R.Thigh.Upper.Post			R.Thigh.Lower.Ant			R.Thigh.Lower.Post			R.Thigh.Upper.Ant			R.Knee.Lat			R.Knee.Med			R.Shank.Upper.Post			R.Shank.Lower.Ant			R.Shank.Lower.Post			R.Shank.Upper.Ant			R.Ankle.Lat			R.Ankle.Med			R.Heel.Upper			R.Heel.Med			R.Heel.Lat			R.Toe.Lat			R.Toe.Med			R.Toe.Tip			L.Thigh.Upper.Post			L.Thigh.Lower.Ant			L.Thigh.Lower.Post			L.Thigh.Upper.Ant			L.Knee.Lat			L.Knee.Med			L.Shank.Upper.Post			L.Shank.Lower.Ant			L.Shank.Lower.Post			L.Shank.Upper.Ant			L.Ankle.Lat			L.Ankle.Med			L.Heel.Upper			L.Heel.Med			L.Heel.Lat			L.Toe.Lat			L.Toe.Med			L.Toe.Tip			Cervical.Spine			Back			
		X1	Y1	Z1	X2	Y2	Z2	X3	Y3	Z3	X4	Y4	Z4	X5	Y5	Z5	X6	Y6	Z6	X7	Y7	Z7	X8	Y8	Z8	X9	Y9	Z9	X10	Y10	Z10	X11	Y11	Z11	X12	Y12	Z12	X13	Y13	Z13	X14	Y14	Z14	X15	Y15	Z15	X16	Y16	Z16	X17	Y17	Z17	X18	Y18	Z18	X19	Y19	Z19	X20	Y20	Z20	X21	Y21	Z21	X22	Y22	Z22	X23	Y23	Z23	X24	Y24	Z24	X25	Y25	Z25	X26	Y26	Z26	X27	Y27	Z27	X28	Y28	Z28	X29	Y29	Z29	X30	Y30	Z30	X31	Y31	Z31	X32	Y32	Z32	X33	Y33	Z33	X34	Y34	Z34	X35	Y35	Z35	X36	Y36	Z36	X37	Y37	Z37	X38	Y38	Z38	X39	Y39	Z39	X40	Y40	Z40	X41	Y41	Z41	X42	Y42	Z42	X43	Y43	Z43	X44	Y44	Z44	X45	Y45	Z45	X46	Y46	Z46	X47	Y47	Z47	X48	Y48	Z48	X49	Y49	Z49	X50	Y50	Z50	X51	Y51	Z51	

256	1.0625	46.59	1147.2	313.2	-75.594	1419.5	460.9	-89.658	1411.4	151.04	-69.856	1720.4	299.59	-29.076	997.35	430.89	-15.662	1002.5	184.73	-242.16	1022.5	338.27	-232.93	1018.6	249.34	-126.49	915.97	498.32	-75.766	909.16	114.4	-115.98	1077.8	467.22	-122.09	1090.8	143.84	-256.5	986.1	290.59	-175.73	673.98	460.74	-122.24	561.09	425.86	-197.12	586.3	430.03	-109.15	647.09	454.66	-165.85	488.56	412.32	-167.55	483.82	291.58	-310.36	362.8	415.21	-278.67	277.65	401.72	-348.44	297.38	403.64	-247.36	343.86	415.23	-417.47	123.47	381.33	-378.16	125.71	298.34	-487.35	114.16	328.81	-483.36	79.727	301.88	-491.47	85.819	366.21	-341.17	41.675	423.87	-289.12	37.85	319.97	-241.4	44.966	368.21	-61.365	646.37	162	46.517	579.8	163.42	-19.238	566.93	182.55	6.284	656.28	138.86	58.436	502.61	174.97	72.865	522.25	307.06	50.585	363.96	167.16	137.8	296.12	176.81	73.36	290.22	172.52	114.28	370.13	172.21	159.33	106.44	193.05	178.85	107.28	284.56	106.13	60.767	248.09	124.51	41.842	281.05	111.73	31.678	221.31	274.94	68.342	160.9	311.13	90.088	266.12	350.96	121.09	204.26	-161.93	1466.9	319.29	-220.72	1202.7	307.47
257	1.0667	52.278	1147	312.43	-70.192	1419.1	460.28	-84.027	1411.1	150.39	-64.677	1720.1	299.23	-23.101	996.87	430.35	-9.7893	1002.5	184.21	-236.27	1021.7	337.87	-227.01	1018.1	248.9	-120.32	915.09	497.73	-69.288	909.23	113.77	-110.11	1077.2	466.8	-116.3	1090.7	143.28	-250.56	985.46	290.13	-168.52	672.89	460.12	-114.6	560.16	425.4	-189.58	585.11	429.46	-101.83	646.24	454.07	-158.25	487.46	412.1	-160.05	482.75	291.38	-304.47	363.7	415.21	-274.03	278.07	401.74	-343.45	298.81	403.61	-241.82	343.82	415.16	-415.21	125.89	381.46	-375.63	127.58	298.55	-485.03	117.98	328.7	-481.55	83.649	301.55	-489.8	89.56	365.91	-340.87	42.172	423.71	-288.66	37.801	320.13	-241.22	44.618	368.36	-55.006	646.38	161.66	52.951	579.88	163.38	-12.904	567.02	182.38	12.727	656.35	138.77	64.753	502.65	174.95	78.951	522.43	306.99	55.796	364.12	167.28	142.33	295.44	177.1	77.844	290.16	172.69	119.54	369.68	172.43	161.37	105.8	193.23	180.7	106.1	284.83	107.04	61.381	248.07	125.11	41.984	281.08	112.12	32.181	221.31	276.18	65.958	161.33	312.71	86.732	266.55	353.27	117.14	204.77	-156.41	1466.5	318.6	-215.04	1202.2	306.83
258	1.0708	57.972	1146.8	311.65	-64.785	1418.8	459.65	-78.369	1410.9	149.74	-59.503	1719.9	298.87	-17.128	996.45	429.81	-3.9386	1002.6	183.7	-230.37	1021	337.47	-221.11	1017.7	248.46	-114.1	914.25	497.13	-62.863	909.39	113.13	-104.25	1076.6	466.37	-110.49	1090.6	142.72	-244.62	984.89	289.65	-161.12	671.82	459.52	-106.73	559.27	424.99	-181.81	583.91	428.94	-94.325	645.45	453.51	-150.4	486.38	411.94	-152.29	481.68	291.23	-298.35	364.69	415.26	-269.18	278.58	401.83	-338.24	300.35	403.63	-236.07	343.86	415.16	-412.74	128.45	381.61	-372.87	129.58	298.81	-482.42	122.08	328.61	-479.48	87.867	301.22	-487.92	93.577	365.6	-340.53	42.747	423.55	-288.17	37.769	320.3	-241.05	44.275	368.52	-48.705	646.46	161.25	59.322	580.03	163.26	-6.6359	567.17	182.12	19.116	656.49	138.62	71.03	502.76	174.86	84.901	522.62	306.88	60.954	364.35	167.29	146.78	294.84	177.32	82.267	290.19	172.77	124.74	369.31	172.56	163.31	105.22	193.34	182.46	105.05	285.03	107.9	61.99	248.02	125.67	42.17	281.08	112.49	32.686	221.27	277.36	63.687	161.7	314.21	83.542	266.91	355.47	113.34	205.2	-150.88	1466.2	317.9	-209.37	1201.8	306.18
259	1.075	63.668	1146.7	310.89	-59.373	1418.5	459.01	-72.683	1410.8	149.09	-54.332	1719.7	298.52	-11.162	996.09	429.26	1.8865	1002.7	183.18	-224.47	1020.4	337.06	-215.23	1017.4	248.01	-107.83	913.46	496.52	-56.505	909.63	112.46	-98.387	1076	465.95	-104.67	1090.7	142.15	-238.69	984.4	289.16	-153.54	670.77	458.96	-98.63	558.42	424.64	-173.82	582.73	428.47	-86.625	644.71	452.98	-142.3	485.32	411.84	-144.28	480.61	291.16	-291.99	365.78	415.34	-264.11	279.21	401.99	-332.8	302.01	403.69	-230.08	343.98	415.25	-410.04	131.16	381.81	-369.89	131.71	299.13	-479.51	126.44	328.53	-477.15	92.383	300.89	-485.8	97.872	365.28	-340.14	43.407	423.38	-287.64	37.758	320.5	-240.9	43.937	368.67	-42.462	646.61	160.77	65.63	580.25	163.07	-0.42955	567.38	181.78	25.453	656.7	138.41	77.266	502.93	174.72	90.73	522.83	306.73	66.048	364.66	167.19	151.16	294.32	177.46	86.618	290.29	172.74	129.86	369.01	172.62	165.17	104.71	193.39	184.13	104.11	285.15	108.71	62.586	247.94	126.18	42.392	281.05	112.85	33.183	221.21	278.47	61.537	162.01	315.61	80.532	267.2	357.55	109.69	205.56	-145.35	1465.9	317.2	-203.7	1201.5	305.52
